<svg id="Calque_1" data-name="Calque 1" xmlns="http://www.w3.org/2000/svg" viewBox="0 0 892 626"><defs><style>.cls-1{fill:#00712f;}.cls-2{fill:#e32213;}</style></defs><path class="cls-1" d="M709.63,494H182.37a26.32,26.32,0,0,1-26.29-26.29V158.29A26.32,26.32,0,0,1,182.37,132H709.63a26.32,26.32,0,0,1,26.29,26.29V467.71A26.32,26.32,0,0,1,709.63,494ZM182.37,137.39a20.92,20.92,0,0,0-20.9,20.9V467.71a20.92,20.92,0,0,0,20.9,20.9H709.63a20.92,20.92,0,0,0,20.9-20.9V158.29a20.92,20.92,0,0,0-20.9-20.9Z"/><path class="cls-1" d="M216.64,407.49a8.21,8.21,0,0,1-1.29,4.53,8.7,8.7,0,0,1-3.8,3.14,14.31,14.31,0,0,1-5.92,1.13,13.35,13.35,0,0,1-6.77-1.55,9.05,9.05,0,0,1-3.08-3,6.74,6.74,0,0,1-1.18-3.62,2.42,2.42,0,0,1,.71-1.75,2.39,2.39,0,0,1,1.81-.73,2.13,2.13,0,0,1,1.5.57,4.41,4.41,0,0,1,1,1.68,11,11,0,0,0,1.15,2.21,4.42,4.42,0,0,0,1.73,1.47,6.44,6.44,0,0,0,2.93.58,6.6,6.6,0,0,0,4.06-1.17,3.49,3.49,0,0,0,1.56-2.9,3.06,3.06,0,0,0-.84-2.24,5.45,5.45,0,0,0-2.18-1.32q-1.34-.45-3.57-1a26.63,26.63,0,0,1-5-1.64,8.16,8.16,0,0,1-3.2-2.55,6.62,6.62,0,0,1-1.18-4,6.91,6.91,0,0,1,1.25-4.07,7.88,7.88,0,0,1,3.61-2.74,15,15,0,0,1,5.56-.95,13.81,13.81,0,0,1,4.42.63,9.36,9.36,0,0,1,3.1,1.69,6.87,6.87,0,0,1,1.79,2.2,5.07,5.07,0,0,1,.57,2.25,2.69,2.69,0,0,1-.71,1.81,2.27,2.27,0,0,1-1.77.8,2,2,0,0,1-1.46-.48,6.31,6.31,0,0,1-1.09-1.58,7.2,7.2,0,0,0-1.82-2.45,5.27,5.27,0,0,0-3.4-.88,5.88,5.88,0,0,0-3.51,1,2.77,2.77,0,0,0-1.34,2.29,2.28,2.28,0,0,0,.46,1.44,3.72,3.72,0,0,0,1.25,1,8.17,8.17,0,0,0,1.6.68c.55.17,1.44.41,2.69.72,1.56.37,3,.77,4.25,1.21a13.16,13.16,0,0,1,3.23,1.61,6.5,6.5,0,0,1,2.08,2.4A7.6,7.6,0,0,1,216.64,407.49Z"/><path class="cls-1" d="M233.61,387.61a14.77,14.77,0,0,1,7.41,1.75,11.3,11.3,0,0,1,4.68,5,17,17,0,0,1,1.59,7.58,18.52,18.52,0,0,1-.87,5.85,12.71,12.71,0,0,1-2.61,4.56,11.44,11.44,0,0,1-4.27,2.95,16.88,16.88,0,0,1-11.64,0,11.48,11.48,0,0,1-4.29-3,12.67,12.67,0,0,1-2.61-4.6,18.72,18.72,0,0,1-.88-5.81A18,18,0,0,1,221,396a12.56,12.56,0,0,1,2.66-4.54,11.43,11.43,0,0,1,4.24-2.87A15.29,15.29,0,0,1,233.61,387.61Zm8,14.26a12.87,12.87,0,0,0-1-5.27,7.32,7.32,0,0,0-2.8-3.38,8.09,8.09,0,0,0-7.31-.51,6.81,6.81,0,0,0-2.46,1.84,8.83,8.83,0,0,0-1.63,3.1,14.15,14.15,0,0,0-.59,4.22,14.57,14.57,0,0,0,.59,4.28,8.79,8.79,0,0,0,1.69,3.17,6.94,6.94,0,0,0,2.5,1.88,7.45,7.45,0,0,0,9.93-3.78A12.92,12.92,0,0,0,241.6,401.87Z"/><path class="cls-1" d="M275.73,407.06a7.43,7.43,0,0,1-.65,2.86,10.46,10.46,0,0,1-5.63,5.44,12.81,12.81,0,0,1-5.07.93,18.19,18.19,0,0,1-4-.41,10.66,10.66,0,0,1-6-3.62,13.9,13.9,0,0,1-1.88-2.92,15.73,15.73,0,0,1-1.16-3.45A18.82,18.82,0,0,1,251,402a17.28,17.28,0,0,1,1-6,12.72,12.72,0,0,1,2.79-4.53,12.2,12.2,0,0,1,4.25-2.87,14,14,0,0,1,5.21-1,13.11,13.11,0,0,1,6,1.34,11,11,0,0,1,4,3.32,6.6,6.6,0,0,1,1.4,3.74,2.45,2.45,0,0,1-.68,1.7,2.19,2.19,0,0,1-1.65.74,2.28,2.28,0,0,1-1.62-.51,7.07,7.07,0,0,1-1.2-1.76,8.5,8.5,0,0,0-2.58-3.09,6.31,6.31,0,0,0-3.66-1,6.65,6.65,0,0,0-5.52,2.63q-2.06,2.64-2.05,7.48a13.8,13.8,0,0,0,.91,5.38,6.79,6.79,0,0,0,2.57,3.21,7.16,7.16,0,0,0,3.9,1.06,6.82,6.82,0,0,0,4.09-1.2,7.31,7.31,0,0,0,2.53-3.53,5.87,5.87,0,0,1,.89-1.79,2,2,0,0,1,1.7-.69,2.36,2.36,0,0,1,1.72.7A2.32,2.32,0,0,1,275.73,407.06Z"/><path class="cls-1" d="M281,412.87V391a3.67,3.67,0,0,1,.78-2.55,2.56,2.56,0,0,1,2-.85,2.7,2.7,0,0,1,2.06.84,3.66,3.66,0,0,1,.78,2.56v21.86a3.69,3.69,0,0,1-.78,2.57,2.67,2.67,0,0,1-2.06.85,2.57,2.57,0,0,1-2-.86A3.65,3.65,0,0,1,281,412.87Z"/><path class="cls-1" d="M311.19,392.41H298.53v6.81h11.66a2.82,2.82,0,0,1,1.92.58,2,2,0,0,1,.63,1.53,2.06,2.06,0,0,1-.62,1.54,2.75,2.75,0,0,1-1.93.59H298.53v7.89h13.09a2.87,2.87,0,0,1,2,.62,2.09,2.09,0,0,1,.67,1.63,2.06,2.06,0,0,1-.67,1.6,2.87,2.87,0,0,1-2,.62H296.36a3.6,3.6,0,0,1-2.64-.81,3.64,3.64,0,0,1-.81-2.64V391.52a4.65,4.65,0,0,1,.36-2,2.24,2.24,0,0,1,1.13-1.12,4.78,4.78,0,0,1,2-.35h14.83a2.9,2.9,0,0,1,2,.6,2,2,0,0,1,.65,1.56,2.07,2.07,0,0,1-.65,1.58A3,3,0,0,1,311.19,392.41Z"/><path class="cls-1" d="M336.77,392.72h-6.13v20.15a3.69,3.69,0,0,1-.78,2.58,2.58,2.58,0,0,1-2,.84,2.66,2.66,0,0,1-2-.85,3.69,3.69,0,0,1-.78-2.57V392.72h-6.13a3.08,3.08,0,0,1-2.14-.64,2.13,2.13,0,0,1-.7-1.67,2.1,2.1,0,0,1,.73-1.7,3.13,3.13,0,0,1,2.11-.63h17.86a3.21,3.21,0,0,1,2.17.64,2.18,2.18,0,0,1,.71,1.69,2.11,2.11,0,0,1-.72,1.67A3.15,3.15,0,0,1,336.77,392.72Z"/><path class="cls-1" d="M361.25,392.41H348.6v6.81h11.65a2.79,2.79,0,0,1,1.92.58,2,2,0,0,1,.64,1.53,2,2,0,0,1-.63,1.54,2.75,2.75,0,0,1-1.93.59H348.6v7.89h13.09a2.89,2.89,0,0,1,2,.62,2.12,2.12,0,0,1,.67,1.63,2.09,2.09,0,0,1-.67,1.6,2.89,2.89,0,0,1-2,.62H346.42a2.94,2.94,0,0,1-3.44-3.45V391.52a4.65,4.65,0,0,1,.36-2,2.22,2.22,0,0,1,1.12-1.12,4.81,4.81,0,0,1,2-.35h14.83a2.88,2.88,0,0,1,2,.6,2,2,0,0,1,.65,1.56,2,2,0,0,1-.65,1.58A2.93,2.93,0,0,1,361.25,392.41Z"/><path class="cls-1" d="M378.74,412.87V391a3.72,3.72,0,0,1,.77-2.55,2.59,2.59,0,0,1,2-.85,2.68,2.68,0,0,1,2.05.84,3.67,3.67,0,0,1,.79,2.56v21.86a3.69,3.69,0,0,1-.79,2.57,2.65,2.65,0,0,1-2.05.85,2.61,2.61,0,0,1-2-.86A3.7,3.7,0,0,1,378.74,412.87Z"/><path class="cls-1" d="M400,411.64,395.56,394v19.14a3.52,3.52,0,0,1-.71,2.39,2.62,2.62,0,0,1-3.74,0,3.46,3.46,0,0,1-.72-2.4V391.17a2.77,2.77,0,0,1,.95-2.46,4.54,4.54,0,0,1,2.55-.63h1.74a6.87,6.87,0,0,1,2.28.28,1.86,1.86,0,0,1,1,1,15.29,15.29,0,0,1,.78,2.4l4,15.19,4-15.19a16.7,16.7,0,0,1,.77-2.4,1.92,1.92,0,0,1,1.05-1,7,7,0,0,1,2.28-.28h1.75a4.54,4.54,0,0,1,2.55.63,2.77,2.77,0,0,1,.95,2.46v21.94a3.52,3.52,0,0,1-.71,2.39,2.44,2.44,0,0,1-1.91.79,2.36,2.36,0,0,1-1.83-.79,3.47,3.47,0,0,1-.72-2.39V394l-4.45,17.67c-.29,1.15-.52,2-.71,2.52a3.45,3.45,0,0,1-1,1.47,2.94,2.94,0,0,1-2,.66,3.14,3.14,0,0,1-1.67-.42,3.24,3.24,0,0,1-1.06-1.09,6,6,0,0,1-.59-1.47C400.3,412.78,400.16,412.22,400,411.64Z"/><path class="cls-1" d="M432.28,411.64,427.84,394v19.14a3.52,3.52,0,0,1-.71,2.39,2.62,2.62,0,0,1-3.74,0,3.46,3.46,0,0,1-.72-2.4V391.17a2.77,2.77,0,0,1,.95-2.46,4.54,4.54,0,0,1,2.55-.63h1.74a6.87,6.87,0,0,1,2.28.28,1.92,1.92,0,0,1,1.05,1,15.29,15.29,0,0,1,.78,2.4l4,15.19,4-15.19a16.7,16.7,0,0,1,.77-2.4,1.92,1.92,0,0,1,1-1,7,7,0,0,1,2.28-.28h1.74a4.55,4.55,0,0,1,2.56.63,2.77,2.77,0,0,1,.94,2.46v21.94a3.52,3.52,0,0,1-.7,2.39,2.44,2.44,0,0,1-1.91.79,2.36,2.36,0,0,1-1.83-.79,3.47,3.47,0,0,1-.72-2.39V394l-4.45,17.67c-.29,1.15-.52,2-.71,2.52a3.45,3.45,0,0,1-1,1.47,2.94,2.94,0,0,1-2,.66,3.14,3.14,0,0,1-1.67-.42,3.24,3.24,0,0,1-1.06-1.09,6,6,0,0,1-.59-1.47C432.58,412.78,432.43,412.22,432.28,411.64Z"/><path class="cls-1" d="M467.4,387.61a14.8,14.8,0,0,1,7.41,1.75,11.36,11.36,0,0,1,4.68,5,17,17,0,0,1,1.59,7.58,18.52,18.52,0,0,1-.87,5.85,12.71,12.71,0,0,1-2.61,4.56,11.48,11.48,0,0,1-4.28,2.95,15.45,15.45,0,0,1-5.81,1,15.25,15.25,0,0,1-5.82-1.05,11.6,11.6,0,0,1-4.3-3,12.65,12.65,0,0,1-2.6-4.6,18.43,18.43,0,0,1-.88-5.81,17.7,17.7,0,0,1,.92-5.86,12.42,12.42,0,0,1,2.66-4.54,11.47,11.47,0,0,1,4.23-2.87A15.34,15.34,0,0,1,467.4,387.61Zm8,14.26a12.88,12.88,0,0,0-1-5.27,7.34,7.34,0,0,0-2.81-3.38,8.07,8.07,0,0,0-7.3-.51,6.64,6.64,0,0,0-2.46,1.84,8.83,8.83,0,0,0-1.63,3.1,13.83,13.83,0,0,0-.6,4.22,14.23,14.23,0,0,0,.6,4.28,8.93,8.93,0,0,0,1.68,3.17,7,7,0,0,0,2.5,1.88,7.5,7.5,0,0,0,3.1.63,7.3,7.3,0,0,0,6.84-4.41A12.93,12.93,0,0,0,475.38,401.87Z"/><path class="cls-1" d="M497.73,415.82h-8.48a3.56,3.56,0,0,1-2.62-.82,3.74,3.74,0,0,1-.78-2.63V391.52a3.63,3.63,0,0,1,.8-2.63,3.55,3.55,0,0,1,2.6-.81h9a20.27,20.27,0,0,1,3.44.25,7.37,7.37,0,0,1,2.62.94,7,7,0,0,1,1.74,1.49,6.58,6.58,0,0,1,1.15,2,6.82,6.82,0,0,1,.4,2.3q0,4.17-4.17,6.1,5.47,1.74,5.47,6.77a7.56,7.56,0,0,1-1.19,4.19,7.13,7.13,0,0,1-3.22,2.75,10.86,10.86,0,0,1-2.91.75A28.85,28.85,0,0,1,497.73,415.82Zm-6.26-23.52v7.17h5.14a10.24,10.24,0,0,0,3.25-.4,3.12,3.12,0,0,0,1.75-1.51,3.45,3.45,0,0,0,.47-1.78,2.77,2.77,0,0,0-1.49-2.79,11.45,11.45,0,0,0-4.56-.69Zm5.84,11.2h-5.84v8.1h6q5.7,0,5.7-4.11a3.33,3.33,0,0,0-1.48-3A8.25,8.25,0,0,0,497.31,403.5Z"/><path class="cls-1" d="M514,412.87V391a3.67,3.67,0,0,1,.78-2.55,2.57,2.57,0,0,1,2-.85,2.7,2.7,0,0,1,2.06.84,3.66,3.66,0,0,1,.78,2.56v21.86a3.69,3.69,0,0,1-.78,2.57,2.67,2.67,0,0,1-2.06.85,2.59,2.59,0,0,1-2-.86A3.65,3.65,0,0,1,514,412.87Z"/><path class="cls-1" d="M531.39,391V411.2h11.39a3,3,0,0,1,2.09.66,2.16,2.16,0,0,1,.73,1.67,2.09,2.09,0,0,1-.72,1.65,3.05,3.05,0,0,1-2.1.64H529.21a3.63,3.63,0,0,1-2.64-.81,3.69,3.69,0,0,1-.8-2.64V391a3.72,3.72,0,0,1,.77-2.55,2.56,2.56,0,0,1,2-.85,2.66,2.66,0,0,1,2.05.84A3.62,3.62,0,0,1,531.39,391Z"/><path class="cls-1" d="M549.52,412.87V391a3.67,3.67,0,0,1,.77-2.55,2.59,2.59,0,0,1,2-.85,2.68,2.68,0,0,1,2.05.84,3.67,3.67,0,0,1,.79,2.56v21.86a3.69,3.69,0,0,1-.79,2.57,2.65,2.65,0,0,1-2.05.85,2.59,2.59,0,0,1-2-.86A3.7,3.7,0,0,1,549.52,412.87Z"/><path class="cls-1" d="M579.69,392.41H567v6.81h11.65a2.79,2.79,0,0,1,1.92.58,2,2,0,0,1,.64,1.53,2,2,0,0,1-.63,1.54,2.73,2.73,0,0,1-1.93.59H567v7.89h13.09a2.89,2.89,0,0,1,2,.62,2.12,2.12,0,0,1,.67,1.63,2.09,2.09,0,0,1-.67,1.6,2.89,2.89,0,0,1-2,.62H564.86a2.94,2.94,0,0,1-3.44-3.45V391.52a4.65,4.65,0,0,1,.36-2,2.22,2.22,0,0,1,1.12-1.12,4.81,4.81,0,0,1,2-.35h14.83a2.86,2.86,0,0,1,2,.6,2,2,0,0,1,.65,1.56,2,2,0,0,1-.65,1.58A2.91,2.91,0,0,1,579.69,392.41Z"/><path class="cls-1" d="M594.81,404h-2v8.91a3.7,3.7,0,0,1-.77,2.59,2.66,2.66,0,0,1-2,.83,2.58,2.58,0,0,1-2.08-.87,3.86,3.86,0,0,1-.74-2.55V391.52a3,3,0,0,1,3.45-3.44h9.14a27,27,0,0,1,3.23.16,8.34,8.34,0,0,1,2.42.65,7,7,0,0,1,2.31,1.58,6.91,6.91,0,0,1,1.53,2.37,8.07,8.07,0,0,1,.52,2.87,6.93,6.93,0,0,1-1.75,5,10,10,0,0,1-5.31,2.63,10.36,10.36,0,0,1,2.86,2.35,24.6,24.6,0,0,1,2.43,3.3,25.26,25.26,0,0,1,1.66,3.16,6.24,6.24,0,0,1,.6,1.94,2,2,0,0,1-.35,1.09,2.48,2.48,0,0,1-1,.85,3,3,0,0,1-1.4.31,2.78,2.78,0,0,1-1.59-.44,4.23,4.23,0,0,1-1.1-1.13c-.31-.45-.73-1.12-1.26-2L601.4,409a20.86,20.86,0,0,0-2.17-3.14,5.4,5.4,0,0,0-1.94-1.48A6.79,6.79,0,0,0,594.81,404ZM598,392.3h-5.19v7.63h5a14.21,14.21,0,0,0,3.4-.35,4,4,0,0,0,2.11-1.2,3.39,3.39,0,0,0,.73-2.31,3.51,3.51,0,0,0-2.21-3.35A11.63,11.63,0,0,0,598,392.3Z"/><path class="cls-1" d="M633.41,392.41H620.75v6.81h11.66a2.79,2.79,0,0,1,1.92.58,2,2,0,0,1,.63,1.53,2.06,2.06,0,0,1-.62,1.54,2.75,2.75,0,0,1-1.93.59H620.75v7.89h13.1a2.86,2.86,0,0,1,2,.62,2.09,2.09,0,0,1,.67,1.63,2.06,2.06,0,0,1-.67,1.6,2.86,2.86,0,0,1-2,.62H618.58a3.6,3.6,0,0,1-2.64-.81,3.64,3.64,0,0,1-.81-2.64V391.52a4.65,4.65,0,0,1,.36-2,2.24,2.24,0,0,1,1.13-1.12,4.78,4.78,0,0,1,2-.35h14.83a2.88,2.88,0,0,1,2,.6,2,2,0,0,1,.65,1.56,2.07,2.07,0,0,1-.65,1.58A2.93,2.93,0,0,1,633.41,392.41Z"/><path class="cls-1" d="M668.94,392.41H656.29v6.81h11.65a2.79,2.79,0,0,1,1.92.58,2,2,0,0,1,.64,1.53,2,2,0,0,1-.63,1.54,2.75,2.75,0,0,1-1.93.59H656.29v7.89h13.09a2.89,2.89,0,0,1,2,.62,2.12,2.12,0,0,1,.67,1.63,2.09,2.09,0,0,1-.67,1.6,2.89,2.89,0,0,1-2,.62H654.11a2.94,2.94,0,0,1-3.44-3.45V391.52a4.65,4.65,0,0,1,.36-2,2.22,2.22,0,0,1,1.12-1.12,4.81,4.81,0,0,1,2-.35h14.83a2.88,2.88,0,0,1,2,.6,2,2,0,0,1,.65,1.56,2,2,0,0,1-.65,1.58A2.93,2.93,0,0,1,668.94,392.41Z"/><path class="cls-1" d="M694.52,392.72h-6.13v20.15a3.69,3.69,0,0,1-.77,2.58,2.84,2.84,0,0,1-4,0,3.69,3.69,0,0,1-.79-2.57V392.72h-6.13a3,3,0,0,1-2.13-.64,2.35,2.35,0,0,1,0-3.37,3.15,3.15,0,0,1,2.11-.63h17.86a3.18,3.18,0,0,1,2.17.64,2.18,2.18,0,0,1,.71,1.69,2.11,2.11,0,0,1-.72,1.67A3.15,3.15,0,0,1,694.52,392.72Z"/><path class="cls-1" d="M198,434.27h7.25a19.56,19.56,0,0,1,4.86.53,8.92,8.92,0,0,1,3.67,2q4.29,3.67,4.29,11.17a21.75,21.75,0,0,1-.43,4.52,13.38,13.38,0,0,1-1.33,3.68,11.64,11.64,0,0,1-2.3,2.94,9.73,9.73,0,0,1-2.42,1.59,11,11,0,0,1-2.82.84,20.6,20.6,0,0,1-3.4.25h-7.26a4.58,4.58,0,0,1-2.28-.46,2.15,2.15,0,0,1-1-1.29,8.56,8.56,0,0,1-.23-2.17V437.68a2.93,2.93,0,0,1,3.41-3.41Zm2.16,4.41v18.64h4.21c.93,0,1.65,0,2.18-.07a6.83,6.83,0,0,0,1.63-.38,4.47,4.47,0,0,0,1.46-.84q2.79-2.36,2.79-8.13a12,12,0,0,0-1.23-6.09,5.43,5.43,0,0,0-3-2.58,14.9,14.9,0,0,0-4.35-.55Z"/><path class="cls-1" d="M226.09,439.48h-.29a2.62,2.62,0,0,1-1.9-.85,2.75,2.75,0,0,1-.85-2,2.65,2.65,0,0,1,.85-2,3,3,0,0,1,2.11-.81,2.86,2.86,0,0,1,1.61.5,3.17,3.17,0,0,1,1.16,1.44,5.73,5.73,0,0,1,.42,2.32,7.91,7.91,0,0,1-.79,3.47,7.76,7.76,0,0,1-1.92,2.57,3.39,3.39,0,0,1-2.05.95,1.26,1.26,0,0,1-.95-.37,1.22,1.22,0,0,1-.37-.89,1.3,1.3,0,0,1,.77-1.23,5.88,5.88,0,0,0,1.56-1.28A3.14,3.14,0,0,0,226.09,439.48Z"/><path class="cls-1" d="M252.57,458.64l-1.31-3.45H240.09l-1.32,3.52a12.16,12.16,0,0,1-1.31,2.78,2.06,2.06,0,0,1-1.78.73,2.6,2.6,0,0,1-1.85-.77,2.37,2.37,0,0,1-.81-1.75,3.75,3.75,0,0,1,.19-1.16c.12-.4.33-1,.62-1.67l7-17.84c.2-.51.44-1.13.73-1.84a9,9,0,0,1,.9-1.79,3.58,3.58,0,0,1,1.25-1.16,4.45,4.45,0,0,1,3.86,0,3.75,3.75,0,0,1,1.26,1.14,7.89,7.89,0,0,1,.8,1.49c.22.53.5,1.24.84,2.12l7.18,17.73a8.92,8.92,0,0,1,.84,2.95,2.45,2.45,0,0,1-.8,1.75,2.62,2.62,0,0,1-1.92.8,2.41,2.41,0,0,1-1.12-.24,2.15,2.15,0,0,1-.79-.64,5.68,5.68,0,0,1-.68-1.23Q252.83,459.27,252.57,458.64Zm-11-7.63h8.21l-4.15-11.34Z"/><path class="cls-1" d="M271.87,457.61l-4.4-17.51v19a3.45,3.45,0,0,1-.71,2.36,2.57,2.57,0,0,1-3.7,0,3.44,3.44,0,0,1-.71-2.37V437.33a2.72,2.72,0,0,1,.94-2.43,4.47,4.47,0,0,1,2.53-.63h1.72a6.78,6.78,0,0,1,2.26.28,1.89,1.89,0,0,1,1,1,15.1,15.1,0,0,1,.77,2.38l4,15,4-15a16.25,16.25,0,0,1,.77-2.38,1.92,1.92,0,0,1,1-1,6.78,6.78,0,0,1,2.26-.28h1.72a4.45,4.45,0,0,1,2.53.63,2.72,2.72,0,0,1,.94,2.43v21.74a3.45,3.45,0,0,1-.7,2.36,2.43,2.43,0,0,1-1.89.79,2.35,2.35,0,0,1-1.81-.79,3.4,3.4,0,0,1-.72-2.36v-19l-4.4,17.51c-.29,1.13-.52,2-.7,2.5a3.52,3.52,0,0,1-1,1.45,2.94,2.94,0,0,1-2,.66,3,3,0,0,1-1.65-.43,3.07,3.07,0,0,1-1.05-1.07,6.56,6.56,0,0,1-.59-1.46Z"/><path class="cls-1" d="M312.67,438.56H300.13v6.75h11.55a2.75,2.75,0,0,1,1.9.57,2,2,0,0,1,.63,1.51,2,2,0,0,1-.62,1.53,2.7,2.7,0,0,1-1.91.59H300.13v7.81h13a2.86,2.86,0,0,1,2,.61,2.12,2.12,0,0,1,.67,1.62,2.08,2.08,0,0,1-.67,1.59,2.86,2.86,0,0,1-2,.61H298a2.91,2.91,0,0,1-3.41-3.41V437.68a4.78,4.78,0,0,1,.35-2,2.22,2.22,0,0,1,1.12-1.1,4.68,4.68,0,0,1,1.94-.35h14.69a2.87,2.87,0,0,1,2,.59,2.19,2.19,0,0,1,0,3.11A2.82,2.82,0,0,1,312.67,438.56Z"/><path class="cls-1" d="M327.42,437.14l10.7,16.19V437a3.57,3.57,0,0,1,.69-2.39,2.3,2.3,0,0,1,1.84-.8,2.41,2.41,0,0,1,1.9.8,3.57,3.57,0,0,1,.69,2.39V458.6q0,3.61-3,3.62a4.06,4.06,0,0,1-1.35-.22,3.37,3.37,0,0,1-1.12-.68,7,7,0,0,1-1-1.1l-.9-1.28-10.44-16V459a3.43,3.43,0,0,1-.73,2.38,2.58,2.58,0,0,1-3.76,0,3.46,3.46,0,0,1-.72-2.37v-21.2a5.94,5.94,0,0,1,.3-2.11,3,3,0,0,1,1.18-1.38,3.21,3.21,0,0,1,1.78-.54,3,3,0,0,1,1.29.25,3.23,3.23,0,0,1,.94.65,7.41,7.41,0,0,1,.82,1.07Z"/><path class="cls-1" d="M366.4,458.64l-1.31-3.45H353.92l-1.31,3.52a12.16,12.16,0,0,1-1.31,2.78,2.07,2.07,0,0,1-1.78.73,2.64,2.64,0,0,1-1.86-.77,2.4,2.4,0,0,1-.8-1.75,4,4,0,0,1,.18-1.16c.13-.4.34-1,.62-1.67l7-17.84.72-1.84a9,9,0,0,1,.9-1.79,3.7,3.7,0,0,1,1.26-1.16,3.89,3.89,0,0,1,1.92-.44,4,4,0,0,1,1.94.44,3.62,3.62,0,0,1,1.25,1.14,7.93,7.93,0,0,1,.81,1.49c.22.53.5,1.24.83,2.12l7.18,17.73a9,9,0,0,1,.85,2.95,2.45,2.45,0,0,1-.8,1.75,2.62,2.62,0,0,1-1.92.8,2.48,2.48,0,0,1-1.13-.24,2.2,2.2,0,0,1-.78-.64,5.64,5.64,0,0,1-.69-1.23Zm-11-7.63h8.21l-4.14-11.34Z"/><path class="cls-1" d="M400.57,450.58v5.26a5.46,5.46,0,0,1-.21,1.68,2.58,2.58,0,0,1-.75,1.13,7.17,7.17,0,0,1-1.42,1,22.55,22.55,0,0,1-4.8,2,19.39,19.39,0,0,1-5,.62,16.32,16.32,0,0,1-5.77-1,12,12,0,0,1-4.44-2.83,12.54,12.54,0,0,1-2.83-4.5,16.94,16.94,0,0,1-1-5.9,17.21,17.21,0,0,1,1-5.87,11.86,11.86,0,0,1,2.81-4.51,12.17,12.17,0,0,1,4.51-2.84,17.27,17.27,0,0,1,6-1,15,15,0,0,1,4.91.74,11,11,0,0,1,3.47,1.87,8.37,8.37,0,0,1,2,2.38,4.85,4.85,0,0,1,.68,2.23,2.37,2.37,0,0,1-.78,1.79,2.63,2.63,0,0,1-1.87.74,2.47,2.47,0,0,1-1.15-.28,2.62,2.62,0,0,1-.93-.79,21.16,21.16,0,0,0-1.74-2.44,5.46,5.46,0,0,0-1.92-1.38,7.25,7.25,0,0,0-3.08-.56,8.56,8.56,0,0,0-3.45.66,7.17,7.17,0,0,0-2.6,1.93,8.67,8.67,0,0,0-1.65,3.1,13.71,13.71,0,0,0-.57,4.07q0,4.83,2.22,7.44a7.7,7.7,0,0,0,6.2,2.61,12.52,12.52,0,0,0,3.62-.51,18.82,18.82,0,0,0,3.44-1.44v-4.47h-4.31a4.74,4.74,0,0,1-2.35-.46,1.72,1.72,0,0,1-.8-1.6,2,2,0,0,1,.67-1.51,2.6,2.6,0,0,1,1.81-.6h6.31a8,8,0,0,1,2,.2,2.24,2.24,0,0,1,1.3.92A3.78,3.78,0,0,1,400.57,450.58Z"/><path class="cls-1" d="M424,438.56H411.44v6.75H423a2.77,2.77,0,0,1,1.9.57,2,2,0,0,1,.63,1.51,2,2,0,0,1-.62,1.53,2.71,2.71,0,0,1-1.91.59H411.44v7.81h13a2.9,2.9,0,0,1,2,.61,2.11,2.11,0,0,1,.66,1.62,2.07,2.07,0,0,1-.66,1.59,2.9,2.9,0,0,1-2,.61H409.29a3.56,3.56,0,0,1-2.62-.81,3.6,3.6,0,0,1-.8-2.6V437.68a4.61,4.61,0,0,1,.36-2,2.22,2.22,0,0,1,1.12-1.1,4.68,4.68,0,0,1,1.94-.35H424a2.89,2.89,0,0,1,2,.59,2.21,2.21,0,0,1,0,3.11A2.84,2.84,0,0,1,424,438.56Z"/><path class="cls-1" d="M440.75,457.61l-4.4-17.51v19a3.5,3.5,0,0,1-.7,2.36,2.58,2.58,0,0,1-3.71,0,3.44,3.44,0,0,1-.71-2.37V437.33a2.72,2.72,0,0,1,.94-2.43,4.47,4.47,0,0,1,2.53-.63h1.72a6.78,6.78,0,0,1,2.26.28,1.89,1.89,0,0,1,1,1,15.1,15.1,0,0,1,.77,2.38l4,15,4-15a16.25,16.25,0,0,1,.77-2.38,1.92,1.92,0,0,1,1-1,6.78,6.78,0,0,1,2.26-.28h1.73a4.49,4.49,0,0,1,2.53.63,2.74,2.74,0,0,1,.93,2.43v21.74a3.45,3.45,0,0,1-.7,2.36,2.42,2.42,0,0,1-1.88.79,2.35,2.35,0,0,1-1.82-.79,3.4,3.4,0,0,1-.71-2.36v-19l-4.41,17.51c-.29,1.13-.52,2-.7,2.5a3.52,3.52,0,0,1-1,1.45,2.94,2.94,0,0,1-2,.66,3,3,0,0,1-1.65-.43,3.07,3.07,0,0,1-1.05-1.07,6.56,6.56,0,0,1-.59-1.46Z"/><path class="cls-1" d="M481.55,438.56H469v6.75h11.55a2.75,2.75,0,0,1,1.9.57,2,2,0,0,1,.63,1.51,2,2,0,0,1-.62,1.53,2.7,2.7,0,0,1-1.91.59H469v7.81h13a2.86,2.86,0,0,1,2,.61,2.12,2.12,0,0,1,.67,1.62,2.08,2.08,0,0,1-.67,1.59,2.86,2.86,0,0,1-2,.61H466.86a2.92,2.92,0,0,1-3.41-3.41V437.68a4.78,4.78,0,0,1,.35-2,2.22,2.22,0,0,1,1.12-1.1,4.71,4.71,0,0,1,1.94-.35h14.69a2.87,2.87,0,0,1,2,.59,2.19,2.19,0,0,1,0,3.11A2.82,2.82,0,0,1,481.55,438.56Z"/><path class="cls-1" d="M496.3,437.14,507,453.33V437a3.57,3.57,0,0,1,.69-2.39,2.3,2.3,0,0,1,1.84-.8,2.41,2.41,0,0,1,1.9.8,3.57,3.57,0,0,1,.69,2.39V458.6q0,3.61-3,3.62a4.06,4.06,0,0,1-1.35-.22,3.37,3.37,0,0,1-1.12-.68,7,7,0,0,1-1-1.1l-.9-1.28-10.44-16V459a3.43,3.43,0,0,1-.73,2.38,2.58,2.58,0,0,1-3.76,0,3.46,3.46,0,0,1-.72-2.37v-21.2a5.94,5.94,0,0,1,.3-2.11,3,3,0,0,1,1.19-1.38,3.18,3.18,0,0,1,1.78-.54,3,3,0,0,1,1.28.25,3.1,3.1,0,0,1,.94.65,6.76,6.76,0,0,1,.82,1.07Z"/><path class="cls-1" d="M536.05,438.86H530v20a3.63,3.63,0,0,1-.77,2.56,2.55,2.55,0,0,1-2,.84,2.63,2.63,0,0,1-2-.85,3.64,3.64,0,0,1-.78-2.55v-20h-6.07a3.14,3.14,0,0,1-2.12-.62,2.15,2.15,0,0,1-.69-1.66,2.1,2.1,0,0,1,.72-1.69,3.14,3.14,0,0,1,2.09-.62h17.69a3.09,3.09,0,0,1,2.15.64,2.13,2.13,0,0,1,.7,1.67,2.1,2.1,0,0,1-.71,1.66A3.2,3.2,0,0,1,536.05,438.86Z"/><path class="cls-1" d="M551.83,450.39V437.18a3.7,3.7,0,0,1,.76-2.53,2.54,2.54,0,0,1,2-.85,2.59,2.59,0,0,1,2,.85,3.65,3.65,0,0,1,.76,2.53v13.51a12.1,12.1,0,0,0,.52,3.85,4.45,4.45,0,0,0,1.82,2.4,6.73,6.73,0,0,0,3.68.85q3.26,0,4.61-1.73a8.51,8.51,0,0,0,1.35-5.26V437.18a3.69,3.69,0,0,1,.75-2.54,2.54,2.54,0,0,1,2-.84,2.65,2.65,0,0,1,2,.84,3.64,3.64,0,0,1,.77,2.54v13.21a19.51,19.51,0,0,1-.63,5.38,8.1,8.1,0,0,1-2.37,3.78,9.23,9.23,0,0,1-3.48,2,15.46,15.46,0,0,1-4.65.64,19,19,0,0,1-5.45-.69,8.58,8.58,0,0,1-3.73-2.12,8.44,8.44,0,0,1-2.12-3.67A18.66,18.66,0,0,1,551.83,450.39Z"/><path class="cls-1" d="M588.44,450h-2v8.82a3.67,3.67,0,0,1-.77,2.57,2.62,2.62,0,0,1-2,.83,2.55,2.55,0,0,1-2.06-.87,3.84,3.84,0,0,1-.73-2.53V437.68a2.93,2.93,0,0,1,3.41-3.41h9a26.79,26.79,0,0,1,3.21.16,8,8,0,0,1,2.4.65,6.94,6.94,0,0,1,2.28,1.55,6.67,6.67,0,0,1,1.51,2.36,7.65,7.65,0,0,1,.52,2.83,6.87,6.87,0,0,1-1.73,4.91,9.93,9.93,0,0,1-5.26,2.61,10.3,10.3,0,0,1,2.83,2.32,24.58,24.58,0,0,1,2.41,3.27,26.28,26.28,0,0,1,1.65,3.13,6.38,6.38,0,0,1,.59,1.93,1.94,1.94,0,0,1-.35,1.07,2.45,2.45,0,0,1-1,.85,3,3,0,0,1-1.38.31,2.68,2.68,0,0,1-1.58-.45,4.12,4.12,0,0,1-1.09-1.11c-.31-.45-.73-1.11-1.25-2L595,455a20.45,20.45,0,0,0-2.15-3.11,5.27,5.27,0,0,0-1.92-1.46A6.66,6.66,0,0,0,588.44,450Zm3.18-11.55h-5.13V446h5a14.14,14.14,0,0,0,3.38-.34,4,4,0,0,0,2.09-1.18,3.41,3.41,0,0,0,.72-2.3,3.59,3.59,0,0,0-.58-2,3.51,3.51,0,0,0-1.62-1.31A11.7,11.7,0,0,0,591.62,438.45Z"/><path class="cls-1" d="M620.3,461.75h-8.4a3.46,3.46,0,0,1-2.59-.82,3.65,3.65,0,0,1-.78-2.59V437.68a2.89,2.89,0,0,1,3.37-3.41h8.9a21,21,0,0,1,3.41.24,7.41,7.41,0,0,1,2.59.94,6.93,6.93,0,0,1,1.73,1.47,6.49,6.49,0,0,1,1.53,4.25q0,4.13-4.12,6,5.41,1.73,5.42,6.71a7.51,7.51,0,0,1-1.19,4.15,7,7,0,0,1-3.18,2.73,11.2,11.2,0,0,1-2.89.74A28.11,28.11,0,0,1,620.3,461.75Zm-6.21-23.3v7.1h5.1a10.37,10.37,0,0,0,3.22-.39,3.06,3.06,0,0,0,1.73-1.5,3.38,3.38,0,0,0,.47-1.76,2.75,2.75,0,0,0-1.48-2.77,11.48,11.48,0,0,0-4.52-.68Zm5.8,11.1h-5.8v8h6q5.64,0,5.64-4.07a3.31,3.31,0,0,0-1.46-3A8.22,8.22,0,0,0,619.89,449.55Z"/><path class="cls-1" d="M652.29,458.64,651,455.19H639.81l-1.31,3.52a12.08,12.08,0,0,1-1.32,2.78,2.06,2.06,0,0,1-1.78.73,2.6,2.6,0,0,1-1.85-.77,2.37,2.37,0,0,1-.81-1.75,3.75,3.75,0,0,1,.19-1.16c.12-.4.33-1,.62-1.67l7-17.84.72-1.84a9,9,0,0,1,.9-1.79,3.67,3.67,0,0,1,1.25-1.16,4.45,4.45,0,0,1,3.86,0,3.75,3.75,0,0,1,1.26,1.14,7.93,7.93,0,0,1,.81,1.49c.21.53.49,1.24.83,2.12l7.18,17.73a8.92,8.92,0,0,1,.84,2.95,2.41,2.41,0,0,1-.8,1.75,2.62,2.62,0,0,1-1.92.8,2.44,2.44,0,0,1-1.12-.24,2.24,2.24,0,0,1-.79-.64,5.68,5.68,0,0,1-.68-1.23Q652.54,459.27,652.29,458.64Zm-11-7.63h8.21l-4.14-11.34Z"/><path class="cls-1" d="M662.54,458.82V437.18a3.65,3.65,0,0,1,.77-2.53,2.54,2.54,0,0,1,2-.85,2.65,2.65,0,0,1,2,.84,3.59,3.59,0,0,1,.78,2.54v21.64a3.64,3.64,0,0,1-.78,2.55,2.66,2.66,0,0,1-2,.85,2.57,2.57,0,0,1-2-.86A3.64,3.64,0,0,1,662.54,458.82Z"/><path class="cls-1" d="M681.58,437.14l10.7,16.19V437a3.57,3.57,0,0,1,.69-2.39,2.3,2.3,0,0,1,1.84-.8,2.41,2.41,0,0,1,1.9.8,3.57,3.57,0,0,1,.69,2.39V458.6q0,3.61-3,3.62a4.06,4.06,0,0,1-1.35-.22,3.37,3.37,0,0,1-1.12-.68,7,7,0,0,1-1-1.1l-.9-1.28-10.44-16V459a3.43,3.43,0,0,1-.73,2.38,2.58,2.58,0,0,1-3.76,0,3.46,3.46,0,0,1-.72-2.37v-21.2a5.94,5.94,0,0,1,.3-2.11,3,3,0,0,1,1.19-1.38,3.16,3.16,0,0,1,1.78-.54,3,3,0,0,1,1.28.25,3.1,3.1,0,0,1,.94.65,6.76,6.76,0,0,1,.82,1.07Z"/><path class="cls-1" d="M287,309a34.14,34.14,0,0,1-5.44,19q-5.43,8.4-15.9,13.16t-24.83,4.76q-17.21,0-28.39-6.5a37.84,37.84,0,0,1-12.89-12.49q-5-7.81-5-15.19a10.28,10.28,0,0,1,10.55-10.39,9,9,0,0,1,6.31,2.37,19,19,0,0,1,4.4,7.07,47.23,47.23,0,0,0,4.8,9.28,19.37,19.37,0,0,0,7.25,6.14q4.68,2.43,12.3,2.42,10.47,0,17-4.88t6.55-12.17a12.89,12.89,0,0,0-3.53-9.4,22.68,22.68,0,0,0-9.13-5.51q-5.58-1.9-15-4.05a109.14,109.14,0,0,1-21-6.86A33.9,33.9,0,0,1,201.78,275q-5-6.78-5-16.85a29,29,0,0,1,5.24-17.06q5.24-7.46,15.15-11.46t23.32-4a57.77,57.77,0,0,1,18.52,2.65,39.33,39.33,0,0,1,13,7.06,29.74,29.74,0,0,1,7.53,9.24,21.27,21.27,0,0,1,2.38,9.44,11.17,11.17,0,0,1-3,7.58,9.53,9.53,0,0,1-7.42,3.37c-2.7,0-4.75-.68-6.15-2a27.35,27.35,0,0,1-4.56-6.63,30,30,0,0,0-7.61-10.27c-3-2.46-7.72-3.69-14.28-3.69q-9.12,0-14.71,4t-5.6,9.63a9.76,9.76,0,0,0,1.91,6,16,16,0,0,0,5.23,4.37,35.9,35.9,0,0,0,6.74,2.85q3.42,1,11.27,3a179.68,179.68,0,0,1,17.81,5.08,54.3,54.3,0,0,1,13.56,6.74,27.74,27.74,0,0,1,8.72,10A32.09,32.09,0,0,1,287,309Z"/><path class="cls-1" d="M308,331.53V239.91q0-7.14,3.25-10.71a10.85,10.85,0,0,1,8.41-3.56,11.21,11.21,0,0,1,8.6,3.52q3.3,3.54,3.3,10.75v91.62q0,7.22-3.3,10.78a11.14,11.14,0,0,1-8.6,3.57,10.81,10.81,0,0,1-8.37-3.61Q307.94,338.67,308,331.53Z"/><path class="cls-1" d="M563.19,330.73l-5.55-14.59H510.37l-5.56,14.91q-3.26,8.73-5.55,11.78t-7.53,3.05a11.05,11.05,0,0,1-7.86-3.25,10,10,0,0,1-3.41-7.38,16.4,16.4,0,0,1,.8-4.91c.52-1.7,1.4-4,2.61-7.06l29.75-75.51q1.26-3.26,3-7.82a39.4,39.4,0,0,1,3.81-7.57,15.48,15.48,0,0,1,5.31-4.88,18.87,18.87,0,0,1,16.34,0,15.71,15.71,0,0,1,5.32,4.8,33.81,33.81,0,0,1,3.41,6.3q1.38,3.38,3.53,9l30.38,75q3.57,8.57,3.57,12.46a10.34,10.34,0,0,1-3.37,7.41,11.08,11.08,0,0,1-8.13,3.37,10.52,10.52,0,0,1-4.76-1,9.76,9.76,0,0,1-3.34-2.69,25.42,25.42,0,0,1-2.89-5.24Q564.31,333.44,563.19,330.73Zm-46.64-32.28h34.74l-17.53-48Z"/><path class="cls-1" d="M599.6,295.83V239.91q0-7.14,3.21-10.71a10.82,10.82,0,0,1,8.45-3.56A11.11,11.11,0,0,1,620,229.2q3.21,3.57,3.21,10.71V297.1a52,52,0,0,0,2.18,16.3,18.84,18.84,0,0,0,7.73,10.16q5.55,3.6,15.55,3.6,13.8,0,19.51-7.33t5.71-22.25V239.91q0-7.22,3.18-10.75a10.83,10.83,0,0,1,8.48-3.52,11.25,11.25,0,0,1,8.61,3.52q3.28,3.54,3.29,10.75v55.92q0,13.65-2.66,22.77a35.1,35.1,0,0,1-10,16A39.08,39.08,0,0,1,670,343.19a64.89,64.89,0,0,1-19.68,2.69A81.13,81.13,0,0,1,627.2,343a36.88,36.88,0,0,1-15.78-9,36,36,0,0,1-9-15.54A78.86,78.86,0,0,1,599.6,295.83Z"/><path class="cls-1" d="M416.11,299.9v18c0,2.84-.65,5-1.93,6.38a6.56,6.56,0,0,1-5.1,2.13,6.36,6.36,0,0,1-5-2.13q-1.91-2.12-1.9-6.38V296.34a69.11,69.11,0,0,0-.35-7.91A8.59,8.59,0,0,0,400,283.8a6,6,0,0,0-4.85-1.81q-6.63,0-8.73,4.56t-2.1,13.06v18.25q0,4.22-1.91,6.36a6.39,6.39,0,0,1-5,2.15,6.48,6.48,0,0,1-5-2.15c-1.3-1.43-2-3.55-2-6.36V279.22a8.45,8.45,0,0,1,1.76-5.78,5.88,5.88,0,0,1,4.63-2,6.29,6.29,0,0,1,4.62,1.85,6.92,6.92,0,0,1,1.86,5.12v1.29a23.57,23.57,0,0,1,7.52-6.19,19.94,19.94,0,0,1,8.9-2,17.83,17.83,0,0,1,8.76,2,16,16,0,0,1,6,6.14,23.42,23.42,0,0,1,7.32-6.16,18.62,18.62,0,0,1,8.66-2,19.71,19.71,0,0,1,9.54,2.17,13.85,13.85,0,0,1,6,6.24q1.72,3.66,1.73,11.52v26.37q0,4.26-1.93,6.38a7.05,7.05,0,0,1-10.12,0q-1.95-2.14-1.95-6.36V295.15a51.56,51.56,0,0,0-.37-7,8,8,0,0,0-2-4.4,6.39,6.39,0,0,0-5-1.79,9,9,0,0,0-5.07,1.59,10.71,10.71,0,0,0-3.74,4.25Q416.11,291.25,416.11,299.9Z"/><path class="cls-1" d="M468.32,345.88H349.79V252H468.32Zm-110.59-7.2H460.39V259.15H357.73Z"/><path class="cls-2" d="M459.51,230.2a8.1,8.1,0,0,1-5.76-2.41l-43.86-44.52L364.26,227.9A8.08,8.08,0,1,1,353,216.35l51.38-50.26a8.09,8.09,0,0,1,11.41.1l49.51,50.26a8.07,8.07,0,0,1-5.75,13.75Z"/></svg>